<mxfile host="app.diagrams.net" modified="2024-05-19T08:10:58.612Z" agent="Mozilla/5.0 (Windows NT 10.0; Win64; x64) AppleWebKit/537.36 (KHTML, like Gecko) Chrome/124.0.0.0 Safari/537.36 Edg/124.0.0.0" version="24.0.1" etag="FWKg9RHF5pkIhZEACrb3" type="github">
  <diagram name="第 1 页" id="2ugudZBrCjB8PrxrulBd">
    <mxGraphModel>
      <root>
        <mxCell id="0" />
        <mxCell id="1" parent="0" />
      </root>
    </mxGraphModel>
  </diagram>
</mxfile>
